<svg width="45" height="46" viewBox="0 0 45 46" fill="none" xmlns="http://www.w3.org/2000/svg"> 
<path fill-rule="evenodd" clip-rule="evenodd" d="M7.88517 11.2529C11.3219 6.9826 16.5919 4.25 22.5 4.25C23.4125 4.25 24.3095 4.31517 25.187 4.4411L26.7815 7.6298L20.679 13.7323L14.1165 14.6698L10.9002 17.886L7.88517 11.2529ZM5.50275 15.0739C4.37815 17.4814 3.75 20.1672 3.75 23C3.75 32.2362 10.4283 39.9127 19.2195 41.464L20.2472 39.7987L14.5368 31.8675L18.4352 26.814L16.5817 25.8872L9.85067 27.009L8.53415 21.743L5.50275 15.0739ZM12.389 21.7005L12.649 22.741L17.168 21.9878L20.9315 23.8695L27.706 22.9285L39.886 30.0338C40.7657 27.8618 41.25 25.4875 41.25 23C41.25 15.3432 36.6605 8.7584 30.0825 5.8464L31.3442 8.37025L22.4467 17.2678L15.8843 18.2052L12.389 21.7005ZM38.1348 33.3535C34.9435 38.163 29.5922 41.415 23.4647 41.7255L24.7528 39.6388L19.2132 31.945L22.7133 27.408L26.937 26.8215L38.1348 33.3535ZM22.5 0.5C10.0736 0.5 0 10.5736 0 23C0 35.4265 10.0736 45.5 22.5 45.5C34.9265 45.5 45 35.4265 45 23C45 10.5736 34.9265 0.5 22.5 0.5Z" fill="#334155"/>
</svg>
